<mxfile host="app.diagrams.net" modified="2020-10-10T21:08:01.828Z" agent="5.0 (Windows NT 10.0; Win64; x64) AppleWebKit/537.36 (KHTML, like Gecko) Chrome/88.0.4287.2 Safari/537.36" etag="_VG6JVyMhJIz7ZuzJ4cf" version="13.7.9" type="github">
  <diagram id="OZLdci_d4gNUk_2OADPe" name="Page-1">
    <mxGraphModel dx="1624" dy="1090" grid="1" gridSize="10" guides="1" tooltips="1" connect="1" arrows="1" fold="1" page="1" pageScale="1" pageWidth="1700" pageHeight="1100" math="0" shadow="0">
      <root>
        <mxCell id="0" />
        <mxCell id="1" parent="0" />
        <mxCell id="2rhj8iCeanHNHY9vTOnK-1" value="" style="rounded=0;whiteSpace=wrap;html=1;" vertex="1" parent="1">
          <mxGeometry x="220" y="350" width="120" height="60" as="geometry" />
        </mxCell>
        <mxCell id="2rhj8iCeanHNHY9vTOnK-2" value="" style="rounded=0;whiteSpace=wrap;html=1;" vertex="1" parent="1">
          <mxGeometry x="110" y="450" width="120" height="60" as="geometry" />
        </mxCell>
        <mxCell id="2rhj8iCeanHNHY9vTOnK-3" value="" style="rounded=0;whiteSpace=wrap;html=1;" vertex="1" parent="1">
          <mxGeometry x="320" y="450" width="120" height="60" as="geometry" />
        </mxCell>
        <mxCell id="2rhj8iCeanHNHY9vTOnK-4" value="" style="rounded=0;whiteSpace=wrap;html=1;" vertex="1" parent="1">
          <mxGeometry y="550" width="120" height="60" as="geometry" />
        </mxCell>
        <mxCell id="2rhj8iCeanHNHY9vTOnK-5" value="" style="rounded=0;whiteSpace=wrap;html=1;" vertex="1" parent="1">
          <mxGeometry x="145" y="550" width="120" height="60" as="geometry" />
        </mxCell>
        <mxCell id="2rhj8iCeanHNHY9vTOnK-6" value="" style="rounded=0;whiteSpace=wrap;html=1;" vertex="1" parent="1">
          <mxGeometry x="290" y="550" width="120" height="60" as="geometry" />
        </mxCell>
        <mxCell id="2rhj8iCeanHNHY9vTOnK-7" value="" style="rounded=0;whiteSpace=wrap;html=1;" vertex="1" parent="1">
          <mxGeometry x="430" y="550" width="120" height="60" as="geometry" />
        </mxCell>
        <mxCell id="2rhj8iCeanHNHY9vTOnK-8" value="50" style="text;html=1;strokeColor=none;fillColor=none;align=center;verticalAlign=middle;whiteSpace=wrap;rounded=0;labelBorderColor=#000000;fontSize=17;" vertex="1" parent="1">
          <mxGeometry x="300" y="390" width="40" height="20" as="geometry" />
        </mxCell>
        <mxCell id="2rhj8iCeanHNHY9vTOnK-10" value="50" style="text;html=1;strokeColor=none;fillColor=none;align=center;verticalAlign=middle;whiteSpace=wrap;rounded=0;labelBorderColor=#000000;fontSize=17;" vertex="1" parent="1">
          <mxGeometry x="400" y="490" width="40" height="20" as="geometry" />
        </mxCell>
        <mxCell id="2rhj8iCeanHNHY9vTOnK-11" value="50" style="text;html=1;strokeColor=none;fillColor=none;align=center;verticalAlign=middle;whiteSpace=wrap;rounded=0;labelBorderColor=#000000;fontSize=17;" vertex="1" parent="1">
          <mxGeometry x="190" y="490" width="40" height="20" as="geometry" />
        </mxCell>
        <mxCell id="2rhj8iCeanHNHY9vTOnK-12" value="50" style="text;html=1;strokeColor=none;fillColor=none;align=center;verticalAlign=middle;whiteSpace=wrap;rounded=0;labelBorderColor=#000000;fontSize=17;" vertex="1" parent="1">
          <mxGeometry x="225" y="590" width="40" height="20" as="geometry" />
        </mxCell>
        <mxCell id="2rhj8iCeanHNHY9vTOnK-13" value="50" style="text;html=1;strokeColor=none;fillColor=none;align=center;verticalAlign=middle;whiteSpace=wrap;rounded=0;labelBorderColor=#000000;fontSize=17;" vertex="1" parent="1">
          <mxGeometry x="370" y="590" width="40" height="20" as="geometry" />
        </mxCell>
        <mxCell id="2rhj8iCeanHNHY9vTOnK-14" value="50" style="text;html=1;strokeColor=none;fillColor=none;align=center;verticalAlign=middle;whiteSpace=wrap;rounded=0;labelBorderColor=#000000;fontSize=17;" vertex="1" parent="1">
          <mxGeometry x="510" y="590" width="40" height="20" as="geometry" />
        </mxCell>
        <mxCell id="2rhj8iCeanHNHY9vTOnK-15" value="50" style="text;html=1;strokeColor=none;fillColor=none;align=center;verticalAlign=middle;whiteSpace=wrap;rounded=0;labelBorderColor=#000000;fontSize=17;" vertex="1" parent="1">
          <mxGeometry x="80" y="590" width="40" height="20" as="geometry" />
        </mxCell>
        <mxCell id="2rhj8iCeanHNHY9vTOnK-16" value="350" style="text;html=1;strokeColor=none;fillColor=none;align=center;verticalAlign=middle;whiteSpace=wrap;rounded=0;fontSize=17;" vertex="1" parent="1">
          <mxGeometry x="270" y="250" width="40" height="20" as="geometry" />
        </mxCell>
        <mxCell id="2rhj8iCeanHNHY9vTOnK-17" value="" style="triangle;whiteSpace=wrap;html=1;rotation=-180;" vertex="1" parent="1">
          <mxGeometry x="40" y="310" width="60" height="80" as="geometry" />
        </mxCell>
        <mxCell id="2rhj8iCeanHNHY9vTOnK-18" value="175" style="text;html=1;strokeColor=none;fillColor=none;align=center;verticalAlign=middle;whiteSpace=wrap;rounded=0;fontSize=17;" vertex="1" parent="1">
          <mxGeometry x="60" y="340" width="40" height="20" as="geometry" />
        </mxCell>
        <mxCell id="2rhj8iCeanHNHY9vTOnK-19" value="175" style="text;html=1;strokeColor=none;fillColor=none;align=center;verticalAlign=middle;whiteSpace=wrap;rounded=0;" vertex="1" parent="1">
          <mxGeometry x="430" y="550" width="40" height="20" as="geometry" />
        </mxCell>
        <mxCell id="2rhj8iCeanHNHY9vTOnK-20" value="" style="rounded=0;whiteSpace=wrap;html=1;" vertex="1" parent="1">
          <mxGeometry x="900" y="350" width="120" height="60" as="geometry" />
        </mxCell>
        <mxCell id="2rhj8iCeanHNHY9vTOnK-21" value="" style="rounded=0;whiteSpace=wrap;html=1;" vertex="1" parent="1">
          <mxGeometry x="790" y="450" width="120" height="60" as="geometry" />
        </mxCell>
        <mxCell id="2rhj8iCeanHNHY9vTOnK-22" value="" style="rounded=0;whiteSpace=wrap;html=1;" vertex="1" parent="1">
          <mxGeometry x="1000" y="450" width="120" height="60" as="geometry" />
        </mxCell>
        <mxCell id="2rhj8iCeanHNHY9vTOnK-23" value="" style="rounded=0;whiteSpace=wrap;html=1;" vertex="1" parent="1">
          <mxGeometry x="680" y="550" width="120" height="60" as="geometry" />
        </mxCell>
        <mxCell id="2rhj8iCeanHNHY9vTOnK-24" value="" style="rounded=0;whiteSpace=wrap;html=1;" vertex="1" parent="1">
          <mxGeometry x="825" y="550" width="120" height="60" as="geometry" />
        </mxCell>
        <mxCell id="2rhj8iCeanHNHY9vTOnK-25" value="" style="rounded=0;whiteSpace=wrap;html=1;" vertex="1" parent="1">
          <mxGeometry x="970" y="550" width="120" height="60" as="geometry" />
        </mxCell>
        <mxCell id="2rhj8iCeanHNHY9vTOnK-26" value="" style="rounded=0;whiteSpace=wrap;html=1;" vertex="1" parent="1">
          <mxGeometry x="1110" y="550" width="120" height="60" as="geometry" />
        </mxCell>
        <mxCell id="2rhj8iCeanHNHY9vTOnK-27" value="50" style="text;html=1;strokeColor=none;fillColor=none;align=center;verticalAlign=middle;whiteSpace=wrap;rounded=0;labelBorderColor=#000000;fontSize=17;" vertex="1" parent="1">
          <mxGeometry x="980" y="390" width="40" height="20" as="geometry" />
        </mxCell>
        <mxCell id="2rhj8iCeanHNHY9vTOnK-28" value="50" style="text;html=1;strokeColor=none;fillColor=none;align=center;verticalAlign=middle;whiteSpace=wrap;rounded=0;labelBorderColor=#000000;fontSize=17;" vertex="1" parent="1">
          <mxGeometry x="1080" y="490" width="40" height="20" as="geometry" />
        </mxCell>
        <mxCell id="2rhj8iCeanHNHY9vTOnK-29" value="50" style="text;html=1;strokeColor=none;fillColor=none;align=center;verticalAlign=middle;whiteSpace=wrap;rounded=0;labelBorderColor=#000000;fontSize=17;" vertex="1" parent="1">
          <mxGeometry x="870" y="490" width="40" height="20" as="geometry" />
        </mxCell>
        <mxCell id="2rhj8iCeanHNHY9vTOnK-30" value="50" style="text;html=1;strokeColor=none;fillColor=none;align=center;verticalAlign=middle;whiteSpace=wrap;rounded=0;labelBorderColor=#000000;fontSize=17;" vertex="1" parent="1">
          <mxGeometry x="905" y="590" width="40" height="20" as="geometry" />
        </mxCell>
        <mxCell id="2rhj8iCeanHNHY9vTOnK-31" value="50" style="text;html=1;strokeColor=none;fillColor=none;align=center;verticalAlign=middle;whiteSpace=wrap;rounded=0;labelBorderColor=#000000;fontSize=17;" vertex="1" parent="1">
          <mxGeometry x="1050" y="590" width="40" height="20" as="geometry" />
        </mxCell>
        <mxCell id="2rhj8iCeanHNHY9vTOnK-32" value="50" style="text;html=1;strokeColor=none;fillColor=none;align=center;verticalAlign=middle;whiteSpace=wrap;rounded=0;labelBorderColor=#000000;fontSize=17;" vertex="1" parent="1">
          <mxGeometry x="1190" y="590" width="40" height="20" as="geometry" />
        </mxCell>
        <mxCell id="2rhj8iCeanHNHY9vTOnK-33" value="50" style="text;html=1;strokeColor=none;fillColor=none;align=center;verticalAlign=middle;whiteSpace=wrap;rounded=0;labelBorderColor=#000000;fontSize=17;" vertex="1" parent="1">
          <mxGeometry x="760" y="590" width="40" height="20" as="geometry" />
        </mxCell>
        <mxCell id="2rhj8iCeanHNHY9vTOnK-34" value="350" style="text;html=1;strokeColor=none;fillColor=none;align=center;verticalAlign=middle;whiteSpace=wrap;rounded=0;fontSize=17;" vertex="1" parent="1">
          <mxGeometry x="945" y="250" width="40" height="20" as="geometry" />
        </mxCell>
        <mxCell id="2rhj8iCeanHNHY9vTOnK-35" value="" style="triangle;whiteSpace=wrap;html=1;rotation=-180;" vertex="1" parent="1">
          <mxGeometry x="720" y="310" width="60" height="80" as="geometry" />
        </mxCell>
        <mxCell id="2rhj8iCeanHNHY9vTOnK-36" value="175" style="text;html=1;strokeColor=none;fillColor=none;align=center;verticalAlign=middle;whiteSpace=wrap;rounded=0;fontSize=17;" vertex="1" parent="1">
          <mxGeometry x="740" y="340" width="40" height="20" as="geometry" />
        </mxCell>
        <mxCell id="2rhj8iCeanHNHY9vTOnK-37" value="175" style="text;html=1;strokeColor=none;fillColor=none;align=center;verticalAlign=middle;whiteSpace=wrap;rounded=0;" vertex="1" parent="1">
          <mxGeometry x="1110" y="550" width="40" height="20" as="geometry" />
        </mxCell>
        <mxCell id="2rhj8iCeanHNHY9vTOnK-38" style="edgeStyle=orthogonalEdgeStyle;rounded=0;orthogonalLoop=1;jettySize=auto;html=1;exitX=0.5;exitY=1;exitDx=0;exitDy=0;entryX=1;entryY=0.5;entryDx=0;entryDy=0;" edge="1" parent="1" source="2rhj8iCeanHNHY9vTOnK-8" target="2rhj8iCeanHNHY9vTOnK-8">
          <mxGeometry relative="1" as="geometry" />
        </mxCell>
      </root>
    </mxGraphModel>
  </diagram>
</mxfile>
